<svg xmlns="http://www.w3.org/2000/svg" width="64" height="64" viewBox="0 0 64 64"><circle cx="32" cy="33" r="29" fill="#000000" opacity="0.18"/><circle cx="32" cy="32" r="28" fill="#D97706" stroke="#FFFFFF" stroke-width="4"/><path fill="#FFFFFF" d="M18 34l4-10a4 4 0 0 1 4-3h12a4 4 0 0 1 4 3l4 10v9a2 2 0 0 1-2 2h-3a2 2 0 0 1-2-2v-2H25v2a2 2 0 0 1-2 2h-3a2 2 0 0 1-2-2z"/><path fill="#D97706" d="M24 33l3-8h10l3 8z"/><circle fill="#D97706" cx="23.5" cy="38" r="2.5"/><circle fill="#D97706" cx="40.5" cy="38" r="2.5"/></svg>